<svg xmlns="http://www.w3.org/2000/svg" aria-hidden="true" class="iconify iconify--logos" viewBox="0 0 256 257"><defs><linearGradient id="a" x1="-.8%" x2="57.6%" y1="7.7%" y2="78.4%"><stop offset="0%" stop-color="#41D1FF"/><stop offset="100%" stop-color="#BD34FE"/></linearGradient><linearGradient id="b" x1="43.4%" x2="50.3%" y1="2.2%" y2="89%"><stop offset="0%" stop-color="#FFEA83"/><stop offset="8.3%" stop-color="#FFDD35"/><stop offset="100%" stop-color="#FFA800"/></linearGradient></defs><path fill="url(#a)" d="M255.2 38 134.9 253a6.5 6.5 0 0 1-11.4 0L1 38a6.5 6.5 0 0 1 6.8-9.7l120.4 21.5a6.5 6.5 0 0 0 2.3 0l117.9-21.5c5.4-1 9.5 4.8 6.9 9.6Z"/><path fill="url(#b)" d="m185.4 0-89 17.5a3.3 3.3 0 0 0-2.6 3L88.3 113a3.3 3.3 0 0 0 4 3.3l24.8-5.7a3.3 3.3 0 0 1 4 3.9l-7.4 36a3.3 3.3 0 0 0 4.1 3.8l15.3-4.7a3.3 3.3 0 0 1 4.2 3.8l-11.7 56.7c-.7 3.5 4 5.4 6 2.4l1.2-2 72.6-144.8a3.3 3.3 0 0 0-3.6-4.6L176.3 66a3.3 3.3 0 0 1-3.7-4.1l16.6-57.7a3.3 3.3 0 0 0-3.8-4.1Z"/></svg>
