<svg width="220" height="75" viewBox="0 0 220 75" xmlns="http://www.w3.org/2000/svg">
<path d="M5.74283 0V35H0V0H5.74283Z" fill="#fff"/>
<path d="M35.7095 0V35H30.0849L17.9375 10.7692V35H12.3837V0H17.9375L30.1794 24.399V0H35.7095Z" fill="#fff"/>
<path d="M54.0015 0V35H48.2823V0H54.0015ZM62.7694 0V4.90385H39.609V0H62.7694Z" fill="#fff"/>
<path d="M86.4733 30.1202V35H71.5372V30.1202H86.4733ZM73.0497 0V35H67.3069V0H73.0497ZM84.4645 14.5673V19.375H71.5372V14.5673H84.4645ZM86.3315 0V4.90385H71.5372V0H86.3315Z" fill="#fff"/>
<path d="M91.2472 0H101.646C103.914 0 105.837 0.400641 107.412 1.20192C108.988 2.00321 110.185 3.1891 111.004 4.75962C111.839 6.3141 112.257 8.24519 112.257 10.5529C112.257 12.2997 111.997 13.8381 111.477 15.1683C110.973 16.4984 110.24 17.6202 109.279 18.5337C108.318 19.4311 107.16 20.1282 105.805 20.625L104.127 21.5625H95.3357L95.3121 16.6587H101.504C102.623 16.6587 103.552 16.4103 104.293 15.9135C105.033 15.4167 105.585 14.7276 105.947 13.8462C106.325 12.9647 106.514 11.9631 106.514 10.8413C106.514 9.63942 106.349 8.59776 106.018 7.71635C105.687 6.81891 105.167 6.12981 104.458 5.64904C103.749 5.15224 102.812 4.90385 101.646 4.90385H96.99V35H91.2472V0ZM107.27 35L100.724 19.2788L106.703 19.2548L113.415 34.6875V35H107.27Z" fill="#fff"/>
<path d="M140.829 0V35H135.205L123.057 10.7692V35H117.503V0H123.057L135.299 24.399V0H140.829Z" fill="#fff"/>
<path d="M166.495 30.1202V35H151.559V30.1202H166.495ZM153.071 0V35H147.328V0H153.071ZM164.486 14.5673V19.375H151.559V14.5673H164.486ZM166.353 0V4.90385H151.559V0H166.353Z" fill="#fff"/>
<path d="M184.22 0V35H178.5V0H184.22ZM192.987 0V4.90385H169.827V0H192.987Z" fill="#fff"/>
<path d="M201.566 0L207.616 16.5865L213.666 0H220L210.5 22.1154V35H204.709V22.1154L195.209 0H201.566Z" fill="#fff"/>
<path d="M9.63277 48.3607V74.6212H7.54902V48.3607H9.63277ZM17.2001 48.3607V50.2906H0V48.3607H17.2001Z" fill="#fff"/>
<path d="M37.4892 58.6593V64.3407C37.4892 66.0601 37.2881 67.5872 36.886 68.9218C36.4961 70.2445 35.9233 71.3567 35.1678 72.2585C34.4245 73.1603 33.5228 73.8457 32.4626 74.3146C31.4146 74.7715 30.2265 75 28.8983 75C27.5944 75 26.4124 74.7715 25.3523 74.3146C24.2921 73.8457 23.3843 73.1603 22.6288 72.2585C21.8733 71.3567 21.2884 70.2445 20.874 68.9218C20.4719 67.5872 20.2709 66.0601 20.2709 64.3407V58.6593C20.2709 56.9279 20.4719 55.3948 20.874 54.0601C21.2762 52.7255 21.8489 51.6132 22.5922 50.7234C23.3477 49.8337 24.2556 49.1603 25.3157 48.7034C26.3759 48.2345 27.5579 48 28.8617 48C30.2022 48 31.4025 48.2345 32.4626 48.7034C33.5228 49.1603 34.4245 49.8337 35.1678 50.7234C35.9233 51.6132 36.4961 52.7255 36.886 54.0601C37.2881 55.3948 37.4892 56.9279 37.4892 58.6593ZM35.4055 64.3407V58.6232C35.4055 57.1924 35.2592 55.9359 34.9668 54.8537C34.6865 53.7715 34.2722 52.8697 33.7238 52.1483C33.1755 51.4269 32.4931 50.8858 31.6766 50.5251C30.8602 50.1643 29.9219 49.984 28.8617 49.984C27.8382 49.984 26.9181 50.1643 26.1017 50.5251C25.2974 50.8858 24.615 51.4329 24.0545 52.1663C23.5061 52.8878 23.0857 53.7896 22.7933 54.8717C22.5008 55.9419 22.3546 57.1924 22.3546 58.6232V64.3407C22.3546 65.7836 22.5008 67.0461 22.7933 68.1283C23.0979 69.1984 23.5305 70.1002 24.0911 70.8337C24.6516 71.5551 25.334 72.0962 26.1383 72.4569C26.9547 72.8176 27.8747 72.998 28.8983 72.998C29.9585 72.998 30.8907 72.8176 31.6949 72.4569C32.5114 72.0962 33.1938 71.5551 33.7421 70.8337C34.2905 70.1002 34.7048 69.1984 34.985 68.1283C35.2653 67.0461 35.4055 65.7836 35.4055 64.3407Z" fill="#fff"/>
<path d="M43.7222 48.3607H45.8242L53.885 71.4469L61.9824 48.3607H64.0661L54.7075 74.6212H53.099L43.7222 48.3607ZM43.0824 48.3607H44.9286L45.1844 63.1864V74.6212H43.0824V48.3607ZM62.8963 48.3607H64.7424V74.6212H62.6587V63.1864L62.8963 48.3607Z" fill="#fff"/>
<path d="M78.9266 49.9479L71.2496 74.6212H69.0927L77.5557 48.3607H79.0362L78.9266 49.9479ZM85.7993 74.6212L78.1223 49.9479L78.0309 48.3607H79.4932L87.9744 74.6212H85.7993ZM84.6112 65.3327V67.2806H72.6022V65.3327H84.6112Z" fill="#fff"/>
<path d="M104.462 68.1283C104.462 67.4188 104.364 66.7876 104.169 66.2345C103.974 65.6693 103.651 65.1643 103.2 64.7194C102.75 64.2745 102.134 63.8597 101.354 63.4749C100.587 63.0782 99.6361 62.6874 98.5028 62.3026C97.3817 61.9299 96.3703 61.521 95.4686 61.0762C94.579 60.6313 93.8113 60.1202 93.1655 59.5431C92.5319 58.9659 92.0444 58.2926 91.7032 57.523C91.3742 56.7535 91.2097 55.8517 91.2097 54.8176C91.2097 53.7956 91.3925 52.8697 91.7581 52.0401C92.1358 51.1984 92.6598 50.477 93.33 49.8758C94.0002 49.2745 94.7923 48.8116 95.7062 48.487C96.6201 48.1623 97.6316 48 98.7405 48C100.325 48 101.689 48.3547 102.835 49.0641C103.992 49.7615 104.882 50.7054 105.503 51.8958C106.125 53.0741 106.436 54.3908 106.436 55.8457H104.352C104.352 54.7034 104.133 53.6874 103.694 52.7976C103.267 51.9078 102.634 51.2104 101.793 50.7054C100.964 50.1884 99.9529 49.9299 98.7587 49.9299C97.5645 49.9299 96.5592 50.1523 95.7428 50.5972C94.9385 51.0301 94.3353 51.6132 93.9332 52.3467C93.5311 53.0681 93.33 53.8677 93.33 54.7455C93.33 55.3707 93.4275 55.9479 93.6225 56.477C93.8174 57.006 94.1404 57.493 94.5912 57.9379C95.0543 58.3828 95.6636 58.8036 96.4191 59.2004C97.1746 59.5852 98.0885 59.9459 99.1609 60.2826C100.367 60.6673 101.427 61.0942 102.341 61.5631C103.267 62.02 104.041 62.5611 104.663 63.1864C105.296 63.7996 105.772 64.509 106.088 65.3146C106.417 66.1202 106.582 67.0461 106.582 68.0922C106.582 69.1743 106.393 70.1423 106.015 70.996C105.638 71.8377 105.101 72.5591 104.407 73.1603C103.712 73.7495 102.896 74.2004 101.957 74.513C101.019 74.8257 99.9834 74.982 98.8501 74.982C97.8631 74.982 96.87 74.8317 95.8707 74.5311C94.8837 74.2305 93.9819 73.7615 93.1655 73.1242C92.3613 72.487 91.7154 71.6693 91.228 70.6713C90.7406 69.6733 90.4968 68.483 90.4968 67.1002H92.5989C92.5989 68.1944 92.7817 69.1263 93.1472 69.8958C93.525 70.6533 94.0124 71.2665 94.6095 71.7355C95.2066 72.1924 95.8768 72.5291 96.6201 72.7455C97.3635 72.9499 98.1129 73.0521 98.8684 73.0521C100.014 73.0521 101.001 72.8477 101.83 72.4389C102.67 72.0301 103.316 71.4589 103.767 70.7255C104.23 69.98 104.462 69.1142 104.462 68.1283Z" fill="#fff"/>
<path d="M126.03 72.6914V74.6212H110.695V72.6914H126.03ZM125.537 49.984L111.225 74.6212H109.909V72.8898L124.202 48.3607H125.537V49.984ZM124.641 48.3607V50.2906H110.274V48.3607H124.641Z" fill="#fff"/>
<path d="M141.439 48.3607V74.6212H139.337V48.3607H141.439ZM151.638 60.4088V62.3747H140.799V60.4088H151.638ZM153.174 48.3607V50.2906H140.799V48.3607H153.174Z" fill="#fff"/>
<path d="M160.211 48.3607V74.6212H158.091V48.3607H160.211Z" fill="#fff"/>
<path d="M176.643 66.7936V48.3607H178.727V66.7936C178.727 68.5611 178.429 70.0521 177.832 71.2665C177.247 72.481 176.442 73.4068 175.419 74.0441C174.395 74.6693 173.231 74.982 171.928 74.982C170.575 74.982 169.381 74.7054 168.345 74.1523C167.321 73.5992 166.523 72.7575 165.95 71.6273C165.39 70.497 165.11 69.0782 165.11 67.3707H167.23C167.23 68.6212 167.419 69.6733 167.797 70.5271C168.174 71.3687 168.711 72 169.405 72.4208C170.112 72.8417 170.953 73.0521 171.928 73.0521C172.805 73.0521 173.597 72.8176 174.304 72.3487C175.023 71.8798 175.589 71.1824 176.004 70.2565C176.43 69.3186 176.643 68.1643 176.643 66.7936Z" fill="#fff"/>
<path d="M201.411 58.6593V64.3407C201.411 66.0601 201.21 67.5872 200.808 68.9218C200.418 70.2445 199.845 71.3567 199.089 72.2585C198.346 73.1603 197.444 73.8457 196.384 74.3146C195.336 74.7715 194.148 75 192.82 75C191.516 75 190.334 74.7715 189.274 74.3146C188.214 73.8457 187.306 73.1603 186.55 72.2585C185.795 71.3567 185.21 70.2445 184.796 68.9218C184.393 67.5872 184.192 66.0601 184.192 64.3407V58.6593C184.192 56.9279 184.393 55.3948 184.796 54.0601C185.198 52.7255 185.77 51.6132 186.514 50.7234C187.269 49.8337 188.177 49.1603 189.237 48.7034C190.297 48.2345 191.479 48 192.783 48C194.124 48 195.324 48.2345 196.384 48.7034C197.444 49.1603 198.346 49.8337 199.089 50.7234C199.845 51.6132 200.418 52.7255 200.808 54.0601C201.21 55.3948 201.411 56.9279 201.411 58.6593ZM199.327 64.3407V58.6232C199.327 57.1924 199.181 55.9359 198.888 54.8537C198.608 53.7715 198.194 52.8697 197.645 52.1483C197.097 51.4269 196.415 50.8858 195.598 50.5251C194.782 50.1643 193.843 49.984 192.783 49.984C191.76 49.984 190.84 50.1643 190.023 50.5251C189.219 50.8858 188.537 51.4329 187.976 52.1663C187.428 52.8878 187.007 53.7896 186.715 54.8717C186.422 55.9419 186.276 57.1924 186.276 58.6232V64.3407C186.276 65.7836 186.422 67.0461 186.715 68.1283C187.02 69.1984 187.452 70.1002 188.013 70.8337C188.573 71.5551 189.256 72.0962 190.06 72.4569C190.876 72.8176 191.796 72.998 192.82 72.998C193.88 72.998 194.812 72.8176 195.616 72.4569C196.433 72.0962 197.115 71.5551 197.664 70.8337C198.212 70.1002 198.626 69.1984 198.907 68.1283C199.187 67.0461 199.327 65.7836 199.327 64.3407Z" fill="#fff"/>
<path d="M213.621 58.1002V59.7776L204.591 63.1503V61.4729L213.621 58.1002ZM220 72.6914V74.6212H208.485V72.6914H220ZM209.069 48.3607V74.6212H206.949V48.3607H209.069Z" fill="#fff"/>
<rect y="41" width="220" height="1" fill="#fff"/>
</svg>
